M48
; DRILL file {KiCad (6.0.0)} date Wed Nov  9 00:29:19 2022
; FORMAT={-:-/ absolute / metric / decimal}
; #@! TF.CreationDate,2022-11-09T00:29:19-05:00
; #@! TF.GenerationSoftware,Kicad,Pcbnew,(6.0.0)
; #@! TF.FileFunction,Plated,1,2,PTH
FMAT,2
METRIC
; #@! TA.AperFunction,Plated,PTH,ViaDrill
T1C0.400
; #@! TA.AperFunction,Plated,PTH,ComponentDrill
T2C0.700
; #@! TA.AperFunction,Plated,PTH,ComponentDrill
T3C0.800
; #@! TA.AperFunction,Plated,PTH,ComponentDrill
T4C1.000
; #@! TA.AperFunction,Plated,PTH,ComponentDrill
T5C1.200
%
G90
G05
T1
X120.396Y-103.124
X121.666Y-85.344
X123.952Y-124.968
X124.968Y-139.7
X125.73Y-86.868
X125.984Y-103.378
X129.54Y-129.54
X131.572Y-88.9
X132.08Y-68.072
X132.08Y-84.328
X135.89Y-121.412
X137.795Y-109.855
X139.7Y-102.87
X141.605Y-104.775
X142.875Y-109.855
X144.78Y-104.648
X145.542Y-87.63
X147.32Y-98.044
X147.32Y-101.6
X148.082Y-91.694
X148.082Y-130.81
X148.59Y-68.326
X150.622Y-91.948
X150.622Y-102.362
X151.384Y-86.614
X151.765Y-104.775
X153.67Y-60.96
X153.67Y-68.58
X154.305Y-112.395
X155.575Y-104.775
X156.21Y-129.286
X156.845Y-112.395
X158.496Y-85.598
X159.385Y-112.395
X161.925Y-112.395
X162.052Y-68.834
X169.926Y-80.772
X170.942Y-125.476
X172.974Y-101.346
X173.482Y-115.316
X183.642Y-66.548
T2
X121.92Y-68.855
X121.92Y-70.755
X132.085Y-131.445
X133.985Y-131.445
X136.53Y-131.445
X138.43Y-131.445
X162.565Y-122.555
X164.465Y-122.555
T3
X121.91Y-73.015
X121.91Y-80.635
X124.45Y-73.015
X124.45Y-80.635
X126.99Y-73.015
X126.99Y-80.635
X129.53Y-73.015
X129.53Y-80.635
X132.07Y-73.015
X132.07Y-80.635
X132.705Y-107.94
X132.705Y-115.56
X134.61Y-73.015
X134.61Y-80.635
X135.245Y-107.94
X135.245Y-115.56
X136.515Y-135.245
X136.515Y-142.865
X137.15Y-73.015
X137.15Y-80.635
X137.785Y-107.94
X137.785Y-115.56
X139.055Y-135.245
X139.055Y-142.865
X139.69Y-73.015
X139.69Y-80.635
X140.325Y-107.94
X140.325Y-115.56
X141.595Y-135.245
X141.595Y-142.865
X142.23Y-73.015
X142.23Y-80.635
X142.865Y-107.94
X142.865Y-115.56
X144.135Y-135.245
X144.135Y-142.865
X144.77Y-73.015
X144.77Y-80.635
X145.405Y-107.94
X145.405Y-115.56
X145.505Y-122.555
X146.675Y-135.245
X146.675Y-142.865
X147.31Y-73.015
X147.31Y-80.635
X147.945Y-107.94
X147.945Y-115.56
X149.215Y-135.245
X149.215Y-142.865
X149.85Y-73.015
X149.85Y-80.635
X150.385Y-122.555
X150.485Y-107.94
X150.485Y-115.56
X151.755Y-135.245
X151.755Y-142.865
X152.39Y-73.015
X152.39Y-80.635
X153.025Y-107.94
X153.025Y-115.56
X154.295Y-135.245
X154.295Y-142.865
X154.93Y-73.015
X154.93Y-80.635
X155.565Y-107.94
X155.565Y-115.56
X156.835Y-135.245
X156.835Y-142.865
X158.105Y-107.94
X158.105Y-115.56
X159.375Y-135.245
X159.375Y-142.865
X160.645Y-107.94
X160.645Y-115.56
X161.915Y-135.245
X161.915Y-142.865
X163.185Y-107.94
X163.185Y-115.56
X164.455Y-135.245
X164.455Y-142.865
X165.725Y-107.94
X165.725Y-115.56
X166.995Y-135.245
X166.995Y-142.865
X169.535Y-135.245
X169.535Y-142.865
X172.212Y-73.471
X172.212Y-75.971
T4
X126.36Y-109.84
X126.36Y-112.38
X126.36Y-114.92
X128.9Y-109.84
X128.9Y-112.38
X128.9Y-114.92
X134.62Y-92.71
X134.62Y-95.25
X137.16Y-92.71
X137.16Y-95.25
X139.7Y-92.71
X139.7Y-95.25
X142.24Y-92.71
X142.24Y-95.25
X144.78Y-92.71
X144.78Y-95.25
X156.5Y-92.71
X156.5Y-95.25
X158.115Y-120.015
X159.04Y-92.71
X159.04Y-95.25
X160.655Y-120.015
X161.58Y-92.71
X161.58Y-95.25
X163.195Y-120.015
X164.12Y-92.71
X164.12Y-95.25
X165.735Y-120.015
X166.66Y-92.71
X166.66Y-95.25
X168.275Y-120.015
X170.815Y-120.015
T5
X123.88Y-62.622
X127.69Y-62.622
X131.5Y-62.622
X135.31Y-62.622
X139.12Y-62.622
X142.93Y-62.622
X146.74Y-62.622
X150.55Y-62.622
X156.9Y-62.622
X160.71Y-62.622
X164.52Y-62.622
X168.33Y-62.622
X172.14Y-62.622
X175.95Y-62.622
X179.76Y-62.622
X181.725Y-72.064
X181.725Y-75.874
X181.852Y-83.24
X181.852Y-87.05
X181.852Y-90.86
X181.852Y-94.67
X181.852Y-98.48
X181.852Y-102.29
X181.852Y-106.1
X181.852Y-109.91
X181.852Y-116.26
X181.852Y-120.07
X181.852Y-123.88
X181.852Y-127.69
X181.852Y-131.5
X181.852Y-135.31
X181.852Y-139.12
X181.852Y-142.93
X183.57Y-62.622
T0
M30
