%FSLAX45Y45*%
G04 Gerber Fmt 4.5, Leading zero omitted, Abs format (unit mm)*
G04 Created by KiCad (PCBNEW (6.0.0)) date 2022-11-09 00:29:20*
%MOMM*%
%LPD*%
G01*
G04 APERTURE LIST*
%TA.AperFunction,Profile*%
%ADD10C,0.100000*%
%TD*%
%ADD11C,0.200000*%
%ADD12C,0.040000*%
%ADD13C,0.070000*%
%ADD14C,0.080000*%
%ADD15C,0.100000*%
%ADD16C,0.120000*%
G04 APERTURE END LIST*
D10*
X18669000Y-14625000D02*
X18669000Y-5825000D01*
X11651000Y-5825000D02*
X11651000Y-14625000D01*
X12151000Y-14128333D02*
G75*
G03*
X12151000Y-14128333I-160000J0D01*
G01*
X11651000Y-14625000D02*
X18669000Y-14625000D01*
X12151000Y-9365000D02*
G75*
G03*
X12151000Y-9365000I-160000J0D01*
G01*
X11651000Y-5825000D02*
X18669000Y-5825000D01*
D11*
D12*
X12019600Y-10292400D02*
X12059600Y-10332400D01*
X12059600Y-10292400D02*
X12019600Y-10332400D01*
X12146600Y-8514400D02*
X12186600Y-8554400D01*
X12186600Y-8514400D02*
X12146600Y-8554400D01*
X12375200Y-12476800D02*
X12415200Y-12516800D01*
X12415200Y-12476800D02*
X12375200Y-12516800D01*
X12476800Y-13950000D02*
X12516800Y-13990000D01*
X12516800Y-13950000D02*
X12476800Y-13990000D01*
X12553000Y-8666800D02*
X12593000Y-8706800D01*
X12593000Y-8666800D02*
X12553000Y-8706800D01*
X12578400Y-10317800D02*
X12618400Y-10357800D01*
X12618400Y-10317800D02*
X12578400Y-10357800D01*
X12934000Y-12934000D02*
X12974000Y-12974000D01*
X12974000Y-12934000D02*
X12934000Y-12974000D01*
X13137200Y-8870000D02*
X13177200Y-8910000D01*
X13177200Y-8870000D02*
X13137200Y-8910000D01*
X13188000Y-6787200D02*
X13228000Y-6827200D01*
X13228000Y-6787200D02*
X13188000Y-6827200D01*
X13188000Y-8412800D02*
X13228000Y-8452800D01*
X13228000Y-8412800D02*
X13188000Y-8452800D01*
X13569000Y-12121200D02*
X13609000Y-12161200D01*
X13609000Y-12121200D02*
X13569000Y-12161200D01*
X13759500Y-10965500D02*
X13799500Y-11005500D01*
X13799500Y-10965500D02*
X13759500Y-11005500D01*
X13950000Y-10267000D02*
X13990000Y-10307000D01*
X13990000Y-10267000D02*
X13950000Y-10307000D01*
X14140500Y-10457500D02*
X14180500Y-10497500D01*
X14180500Y-10457500D02*
X14140500Y-10497500D01*
X14267500Y-10965500D02*
X14307500Y-11005500D01*
X14307500Y-10965500D02*
X14267500Y-11005500D01*
X14458000Y-10444800D02*
X14498000Y-10484800D01*
X14498000Y-10444800D02*
X14458000Y-10484800D01*
X14534200Y-8743000D02*
X14574200Y-8783000D01*
X14574200Y-8743000D02*
X14534200Y-8783000D01*
X14712000Y-9784400D02*
X14752000Y-9824400D01*
X14752000Y-9784400D02*
X14712000Y-9824400D01*
X14712000Y-10140000D02*
X14752000Y-10180000D01*
X14752000Y-10140000D02*
X14712000Y-10180000D01*
X14788200Y-9149400D02*
X14828200Y-9189400D01*
X14828200Y-9149400D02*
X14788200Y-9189400D01*
X14788200Y-13061000D02*
X14828200Y-13101000D01*
X14828200Y-13061000D02*
X14788200Y-13101000D01*
X14839000Y-6812600D02*
X14879000Y-6852600D01*
X14879000Y-6812600D02*
X14839000Y-6852600D01*
X15042200Y-9174800D02*
X15082200Y-9214800D01*
X15082200Y-9174800D02*
X15042200Y-9214800D01*
X15042200Y-10216200D02*
X15082200Y-10256200D01*
X15082200Y-10216200D02*
X15042200Y-10256200D01*
X15118400Y-8641400D02*
X15158400Y-8681400D01*
X15158400Y-8641400D02*
X15118400Y-8681400D01*
X15156500Y-10457500D02*
X15196500Y-10497500D01*
X15196500Y-10457500D02*
X15156500Y-10497500D01*
X15347000Y-6076000D02*
X15387000Y-6116000D01*
X15387000Y-6076000D02*
X15347000Y-6116000D01*
X15347000Y-6838000D02*
X15387000Y-6878000D01*
X15387000Y-6838000D02*
X15347000Y-6878000D01*
X15410500Y-11219500D02*
X15450500Y-11259500D01*
X15450500Y-11219500D02*
X15410500Y-11259500D01*
X15537500Y-10457500D02*
X15577500Y-10497500D01*
X15577500Y-10457500D02*
X15537500Y-10497500D01*
X15601000Y-12908600D02*
X15641000Y-12948600D01*
X15641000Y-12908600D02*
X15601000Y-12948600D01*
X15664500Y-11219500D02*
X15704500Y-11259500D01*
X15704500Y-11219500D02*
X15664500Y-11259500D01*
X15829600Y-8539800D02*
X15869600Y-8579800D01*
X15869600Y-8539800D02*
X15829600Y-8579800D01*
X15918500Y-11219500D02*
X15958500Y-11259500D01*
X15958500Y-11219500D02*
X15918500Y-11259500D01*
X16172500Y-11219500D02*
X16212500Y-11259500D01*
X16212500Y-11219500D02*
X16172500Y-11259500D01*
X16185200Y-6863400D02*
X16225200Y-6903400D01*
X16225200Y-6863400D02*
X16185200Y-6903400D01*
X16972600Y-8057200D02*
X17012600Y-8097200D01*
X17012600Y-8057200D02*
X16972600Y-8097200D01*
X17074200Y-12527600D02*
X17114200Y-12567600D01*
X17114200Y-12527600D02*
X17074200Y-12567600D01*
X17277400Y-10114600D02*
X17317400Y-10154600D01*
X17317400Y-10114600D02*
X17277400Y-10154600D01*
X17328200Y-11511600D02*
X17368200Y-11551600D01*
X17368200Y-11511600D02*
X17328200Y-11551600D01*
X18344200Y-6634800D02*
X18384200Y-6674800D01*
X18384200Y-6634800D02*
X18344200Y-6674800D01*
D13*
X12227000Y-6885500D02*
G75*
G03*
X12227000Y-6885500I-35000J0D01*
G01*
X12227000Y-7075500D02*
G75*
G03*
X12227000Y-7075500I-35000J0D01*
G01*
X13243500Y-13144500D02*
G75*
G03*
X13243500Y-13144500I-35000J0D01*
G01*
X13433500Y-13144500D02*
G75*
G03*
X13433500Y-13144500I-35000J0D01*
G01*
X13688000Y-13144500D02*
G75*
G03*
X13688000Y-13144500I-35000J0D01*
G01*
X13878000Y-13144500D02*
G75*
G03*
X13878000Y-13144500I-35000J0D01*
G01*
X16291500Y-12255500D02*
G75*
G03*
X16291500Y-12255500I-35000J0D01*
G01*
X16481500Y-12255500D02*
G75*
G03*
X16481500Y-12255500I-35000J0D01*
G01*
D14*
X12191000Y-7261500D02*
X12191000Y-7341500D01*
X12151000Y-7301500D02*
X12231000Y-7301500D01*
X12191000Y-8023500D02*
X12191000Y-8103500D01*
X12151000Y-8063500D02*
X12231000Y-8063500D01*
X12445000Y-7261500D02*
X12445000Y-7341500D01*
X12405000Y-7301500D02*
X12485000Y-7301500D01*
X12445000Y-8023500D02*
X12445000Y-8103500D01*
X12405000Y-8063500D02*
X12485000Y-8063500D01*
X12699000Y-7261500D02*
X12699000Y-7341500D01*
X12659000Y-7301500D02*
X12739000Y-7301500D01*
X12699000Y-8023500D02*
X12699000Y-8103500D01*
X12659000Y-8063500D02*
X12739000Y-8063500D01*
X12953000Y-7261500D02*
X12953000Y-7341500D01*
X12913000Y-7301500D02*
X12993000Y-7301500D01*
X12953000Y-8023500D02*
X12953000Y-8103500D01*
X12913000Y-8063500D02*
X12993000Y-8063500D01*
X13207000Y-7261500D02*
X13207000Y-7341500D01*
X13167000Y-7301500D02*
X13247000Y-7301500D01*
X13207000Y-8023500D02*
X13207000Y-8103500D01*
X13167000Y-8063500D02*
X13247000Y-8063500D01*
X13270500Y-10754000D02*
X13270500Y-10834000D01*
X13230500Y-10794000D02*
X13310500Y-10794000D01*
X13270500Y-11516000D02*
X13270500Y-11596000D01*
X13230500Y-11556000D02*
X13310500Y-11556000D01*
X13461000Y-7261500D02*
X13461000Y-7341500D01*
X13421000Y-7301500D02*
X13501000Y-7301500D01*
X13461000Y-8023500D02*
X13461000Y-8103500D01*
X13421000Y-8063500D02*
X13501000Y-8063500D01*
X13524500Y-10754000D02*
X13524500Y-10834000D01*
X13484500Y-10794000D02*
X13564500Y-10794000D01*
X13524500Y-11516000D02*
X13524500Y-11596000D01*
X13484500Y-11556000D02*
X13564500Y-11556000D01*
X13651500Y-13484500D02*
X13651500Y-13564500D01*
X13611500Y-13524500D02*
X13691500Y-13524500D01*
X13651500Y-14246500D02*
X13651500Y-14326500D01*
X13611500Y-14286500D02*
X13691500Y-14286500D01*
X13715000Y-7261500D02*
X13715000Y-7341500D01*
X13675000Y-7301500D02*
X13755000Y-7301500D01*
X13715000Y-8023500D02*
X13715000Y-8103500D01*
X13675000Y-8063500D02*
X13755000Y-8063500D01*
X13778500Y-10754000D02*
X13778500Y-10834000D01*
X13738500Y-10794000D02*
X13818500Y-10794000D01*
X13778500Y-11516000D02*
X13778500Y-11596000D01*
X13738500Y-11556000D02*
X13818500Y-11556000D01*
X13905500Y-13484500D02*
X13905500Y-13564500D01*
X13865500Y-13524500D02*
X13945500Y-13524500D01*
X13905500Y-14246500D02*
X13905500Y-14326500D01*
X13865500Y-14286500D02*
X13945500Y-14286500D01*
X13969000Y-7261500D02*
X13969000Y-7341500D01*
X13929000Y-7301500D02*
X14009000Y-7301500D01*
X13969000Y-8023500D02*
X13969000Y-8103500D01*
X13929000Y-8063500D02*
X14009000Y-8063500D01*
X14032500Y-10754000D02*
X14032500Y-10834000D01*
X13992500Y-10794000D02*
X14072500Y-10794000D01*
X14032500Y-11516000D02*
X14032500Y-11596000D01*
X13992500Y-11556000D02*
X14072500Y-11556000D01*
X14159500Y-13484500D02*
X14159500Y-13564500D01*
X14119500Y-13524500D02*
X14199500Y-13524500D01*
X14159500Y-14246500D02*
X14159500Y-14326500D01*
X14119500Y-14286500D02*
X14199500Y-14286500D01*
X14223000Y-7261500D02*
X14223000Y-7341500D01*
X14183000Y-7301500D02*
X14263000Y-7301500D01*
X14223000Y-8023500D02*
X14223000Y-8103500D01*
X14183000Y-8063500D02*
X14263000Y-8063500D01*
X14286500Y-10754000D02*
X14286500Y-10834000D01*
X14246500Y-10794000D02*
X14326500Y-10794000D01*
X14286500Y-11516000D02*
X14286500Y-11596000D01*
X14246500Y-11556000D02*
X14326500Y-11556000D01*
X14413500Y-13484500D02*
X14413500Y-13564500D01*
X14373500Y-13524500D02*
X14453500Y-13524500D01*
X14413500Y-14246500D02*
X14413500Y-14326500D01*
X14373500Y-14286500D02*
X14453500Y-14286500D01*
X14477000Y-7261500D02*
X14477000Y-7341500D01*
X14437000Y-7301500D02*
X14517000Y-7301500D01*
X14477000Y-8023500D02*
X14477000Y-8103500D01*
X14437000Y-8063500D02*
X14517000Y-8063500D01*
X14540500Y-10754000D02*
X14540500Y-10834000D01*
X14500500Y-10794000D02*
X14580500Y-10794000D01*
X14540500Y-11516000D02*
X14540500Y-11596000D01*
X14500500Y-11556000D02*
X14580500Y-11556000D01*
X14550500Y-12215500D02*
X14550500Y-12295500D01*
X14510500Y-12255500D02*
X14590500Y-12255500D01*
X14667500Y-13484500D02*
X14667500Y-13564500D01*
X14627500Y-13524500D02*
X14707500Y-13524500D01*
X14667500Y-14246500D02*
X14667500Y-14326500D01*
X14627500Y-14286500D02*
X14707500Y-14286500D01*
X14731000Y-7261500D02*
X14731000Y-7341500D01*
X14691000Y-7301500D02*
X14771000Y-7301500D01*
X14731000Y-8023500D02*
X14731000Y-8103500D01*
X14691000Y-8063500D02*
X14771000Y-8063500D01*
X14794500Y-10754000D02*
X14794500Y-10834000D01*
X14754500Y-10794000D02*
X14834500Y-10794000D01*
X14794500Y-11516000D02*
X14794500Y-11596000D01*
X14754500Y-11556000D02*
X14834500Y-11556000D01*
X14921500Y-13484500D02*
X14921500Y-13564500D01*
X14881500Y-13524500D02*
X14961500Y-13524500D01*
X14921500Y-14246500D02*
X14921500Y-14326500D01*
X14881500Y-14286500D02*
X14961500Y-14286500D01*
X14985000Y-7261500D02*
X14985000Y-7341500D01*
X14945000Y-7301500D02*
X15025000Y-7301500D01*
X14985000Y-8023500D02*
X14985000Y-8103500D01*
X14945000Y-8063500D02*
X15025000Y-8063500D01*
X15038500Y-12215500D02*
X15038500Y-12295500D01*
X14998500Y-12255500D02*
X15078500Y-12255500D01*
X15048500Y-10754000D02*
X15048500Y-10834000D01*
X15008500Y-10794000D02*
X15088500Y-10794000D01*
X15048500Y-11516000D02*
X15048500Y-11596000D01*
X15008500Y-11556000D02*
X15088500Y-11556000D01*
X15175500Y-13484500D02*
X15175500Y-13564500D01*
X15135500Y-13524500D02*
X15215500Y-13524500D01*
X15175500Y-14246500D02*
X15175500Y-14326500D01*
X15135500Y-14286500D02*
X15215500Y-14286500D01*
X15239000Y-7261500D02*
X15239000Y-7341500D01*
X15199000Y-7301500D02*
X15279000Y-7301500D01*
X15239000Y-8023500D02*
X15239000Y-8103500D01*
X15199000Y-8063500D02*
X15279000Y-8063500D01*
X15302500Y-10754000D02*
X15302500Y-10834000D01*
X15262500Y-10794000D02*
X15342500Y-10794000D01*
X15302500Y-11516000D02*
X15302500Y-11596000D01*
X15262500Y-11556000D02*
X15342500Y-11556000D01*
X15429500Y-13484500D02*
X15429500Y-13564500D01*
X15389500Y-13524500D02*
X15469500Y-13524500D01*
X15429500Y-14246500D02*
X15429500Y-14326500D01*
X15389500Y-14286500D02*
X15469500Y-14286500D01*
X15493000Y-7261500D02*
X15493000Y-7341500D01*
X15453000Y-7301500D02*
X15533000Y-7301500D01*
X15493000Y-8023500D02*
X15493000Y-8103500D01*
X15453000Y-8063500D02*
X15533000Y-8063500D01*
X15556500Y-10754000D02*
X15556500Y-10834000D01*
X15516500Y-10794000D02*
X15596500Y-10794000D01*
X15556500Y-11516000D02*
X15556500Y-11596000D01*
X15516500Y-11556000D02*
X15596500Y-11556000D01*
X15683500Y-13484500D02*
X15683500Y-13564500D01*
X15643500Y-13524500D02*
X15723500Y-13524500D01*
X15683500Y-14246500D02*
X15683500Y-14326500D01*
X15643500Y-14286500D02*
X15723500Y-14286500D01*
X15810500Y-10754000D02*
X15810500Y-10834000D01*
X15770500Y-10794000D02*
X15850500Y-10794000D01*
X15810500Y-11516000D02*
X15810500Y-11596000D01*
X15770500Y-11556000D02*
X15850500Y-11556000D01*
X15937500Y-13484500D02*
X15937500Y-13564500D01*
X15897500Y-13524500D02*
X15977500Y-13524500D01*
X15937500Y-14246500D02*
X15937500Y-14326500D01*
X15897500Y-14286500D02*
X15977500Y-14286500D01*
X16064500Y-10754000D02*
X16064500Y-10834000D01*
X16024500Y-10794000D02*
X16104500Y-10794000D01*
X16064500Y-11516000D02*
X16064500Y-11596000D01*
X16024500Y-11556000D02*
X16104500Y-11556000D01*
X16191500Y-13484500D02*
X16191500Y-13564500D01*
X16151500Y-13524500D02*
X16231500Y-13524500D01*
X16191500Y-14246500D02*
X16191500Y-14326500D01*
X16151500Y-14286500D02*
X16231500Y-14286500D01*
X16318500Y-10754000D02*
X16318500Y-10834000D01*
X16278500Y-10794000D02*
X16358500Y-10794000D01*
X16318500Y-11516000D02*
X16318500Y-11596000D01*
X16278500Y-11556000D02*
X16358500Y-11556000D01*
X16445500Y-13484500D02*
X16445500Y-13564500D01*
X16405500Y-13524500D02*
X16485500Y-13524500D01*
X16445500Y-14246500D02*
X16445500Y-14326500D01*
X16405500Y-14286500D02*
X16485500Y-14286500D01*
X16572500Y-10754000D02*
X16572500Y-10834000D01*
X16532500Y-10794000D02*
X16612500Y-10794000D01*
X16572500Y-11516000D02*
X16572500Y-11596000D01*
X16532500Y-11556000D02*
X16612500Y-11556000D01*
X16699500Y-13484500D02*
X16699500Y-13564500D01*
X16659500Y-13524500D02*
X16739500Y-13524500D01*
X16699500Y-14246500D02*
X16699500Y-14326500D01*
X16659500Y-14286500D02*
X16739500Y-14286500D01*
X16953500Y-13484500D02*
X16953500Y-13564500D01*
X16913500Y-13524500D02*
X16993500Y-13524500D01*
X16953500Y-14246500D02*
X16953500Y-14326500D01*
X16913500Y-14286500D02*
X16993500Y-14286500D01*
X17221200Y-7307089D02*
X17221200Y-7387089D01*
X17181200Y-7347089D02*
X17261200Y-7347089D01*
X17221200Y-7557089D02*
X17221200Y-7637089D01*
X17181200Y-7597089D02*
X17261200Y-7597089D01*
D15*
X12671356Y-11019356D02*
X12671356Y-10948644D01*
X12600644Y-10948644D01*
X12600644Y-11019356D01*
X12671356Y-11019356D01*
X12671356Y-11273356D02*
X12671356Y-11202644D01*
X12600644Y-11202644D01*
X12600644Y-11273356D01*
X12671356Y-11273356D01*
X12671356Y-11527356D02*
X12671356Y-11456644D01*
X12600644Y-11456644D01*
X12600644Y-11527356D01*
X12671356Y-11527356D01*
X12925356Y-11019356D02*
X12925356Y-10948644D01*
X12854644Y-10948644D01*
X12854644Y-11019356D01*
X12925356Y-11019356D01*
X12925356Y-11273356D02*
X12925356Y-11202644D01*
X12854644Y-11202644D01*
X12854644Y-11273356D01*
X12925356Y-11273356D01*
X12925356Y-11527356D02*
X12925356Y-11456644D01*
X12854644Y-11456644D01*
X12854644Y-11527356D01*
X12925356Y-11527356D01*
X13497356Y-9306356D02*
X13497356Y-9235644D01*
X13426644Y-9235644D01*
X13426644Y-9306356D01*
X13497356Y-9306356D01*
X13497356Y-9560356D02*
X13497356Y-9489644D01*
X13426644Y-9489644D01*
X13426644Y-9560356D01*
X13497356Y-9560356D01*
X13751356Y-9306356D02*
X13751356Y-9235644D01*
X13680644Y-9235644D01*
X13680644Y-9306356D01*
X13751356Y-9306356D01*
X13751356Y-9560356D02*
X13751356Y-9489644D01*
X13680644Y-9489644D01*
X13680644Y-9560356D01*
X13751356Y-9560356D01*
X14005356Y-9306356D02*
X14005356Y-9235644D01*
X13934644Y-9235644D01*
X13934644Y-9306356D01*
X14005356Y-9306356D01*
X14005356Y-9560356D02*
X14005356Y-9489644D01*
X13934644Y-9489644D01*
X13934644Y-9560356D01*
X14005356Y-9560356D01*
X14259356Y-9306356D02*
X14259356Y-9235644D01*
X14188644Y-9235644D01*
X14188644Y-9306356D01*
X14259356Y-9306356D01*
X14259356Y-9560356D02*
X14259356Y-9489644D01*
X14188644Y-9489644D01*
X14188644Y-9560356D01*
X14259356Y-9560356D01*
X14513356Y-9306356D02*
X14513356Y-9235644D01*
X14442644Y-9235644D01*
X14442644Y-9306356D01*
X14513356Y-9306356D01*
X14513356Y-9560356D02*
X14513356Y-9489644D01*
X14442644Y-9489644D01*
X14442644Y-9560356D01*
X14513356Y-9560356D01*
X15685356Y-9306356D02*
X15685356Y-9235644D01*
X15614644Y-9235644D01*
X15614644Y-9306356D01*
X15685356Y-9306356D01*
X15685356Y-9560356D02*
X15685356Y-9489644D01*
X15614644Y-9489644D01*
X15614644Y-9560356D01*
X15685356Y-9560356D01*
X15846856Y-12036856D02*
X15846856Y-11966144D01*
X15776144Y-11966144D01*
X15776144Y-12036856D01*
X15846856Y-12036856D01*
X15939356Y-9306356D02*
X15939356Y-9235644D01*
X15868644Y-9235644D01*
X15868644Y-9306356D01*
X15939356Y-9306356D01*
X15939356Y-9560356D02*
X15939356Y-9489644D01*
X15868644Y-9489644D01*
X15868644Y-9560356D01*
X15939356Y-9560356D01*
X16100856Y-12036856D02*
X16100856Y-11966144D01*
X16030144Y-11966144D01*
X16030144Y-12036856D01*
X16100856Y-12036856D01*
X16193356Y-9306356D02*
X16193356Y-9235644D01*
X16122644Y-9235644D01*
X16122644Y-9306356D01*
X16193356Y-9306356D01*
X16193356Y-9560356D02*
X16193356Y-9489644D01*
X16122644Y-9489644D01*
X16122644Y-9560356D01*
X16193356Y-9560356D01*
X16354856Y-12036856D02*
X16354856Y-11966144D01*
X16284144Y-11966144D01*
X16284144Y-12036856D01*
X16354856Y-12036856D01*
X16447356Y-9306356D02*
X16447356Y-9235644D01*
X16376644Y-9235644D01*
X16376644Y-9306356D01*
X16447356Y-9306356D01*
X16447356Y-9560356D02*
X16447356Y-9489644D01*
X16376644Y-9489644D01*
X16376644Y-9560356D01*
X16447356Y-9560356D01*
X16608856Y-12036856D02*
X16608856Y-11966144D01*
X16538144Y-11966144D01*
X16538144Y-12036856D01*
X16608856Y-12036856D01*
X16701356Y-9306356D02*
X16701356Y-9235644D01*
X16630644Y-9235644D01*
X16630644Y-9306356D01*
X16701356Y-9306356D01*
X16701356Y-9560356D02*
X16701356Y-9489644D01*
X16630644Y-9489644D01*
X16630644Y-9560356D01*
X16701356Y-9560356D01*
X16862856Y-12036856D02*
X16862856Y-11966144D01*
X16792144Y-11966144D01*
X16792144Y-12036856D01*
X16862856Y-12036856D01*
X17116856Y-12036856D02*
X17116856Y-11966144D01*
X17046144Y-11966144D01*
X17046144Y-12036856D01*
X17116856Y-12036856D01*
D16*
X12388000Y-6322250D02*
X12448000Y-6262250D01*
X12388000Y-6202250D01*
X12328000Y-6262250D01*
X12388000Y-6322250D01*
X12769000Y-6322250D02*
X12829000Y-6262250D01*
X12769000Y-6202250D01*
X12709000Y-6262250D01*
X12769000Y-6322250D01*
X13150000Y-6322250D02*
X13210000Y-6262250D01*
X13150000Y-6202250D01*
X13090000Y-6262250D01*
X13150000Y-6322250D01*
X13531000Y-6322250D02*
X13591000Y-6262250D01*
X13531000Y-6202250D01*
X13471000Y-6262250D01*
X13531000Y-6322250D01*
X13912000Y-6322250D02*
X13972000Y-6262250D01*
X13912000Y-6202250D01*
X13852000Y-6262250D01*
X13912000Y-6322250D01*
X14293000Y-6322250D02*
X14353000Y-6262250D01*
X14293000Y-6202250D01*
X14233000Y-6262250D01*
X14293000Y-6322250D01*
X14674000Y-6322250D02*
X14734000Y-6262250D01*
X14674000Y-6202250D01*
X14614000Y-6262250D01*
X14674000Y-6322250D01*
X15055000Y-6322250D02*
X15115000Y-6262250D01*
X15055000Y-6202250D01*
X14995000Y-6262250D01*
X15055000Y-6322250D01*
X15690000Y-6322250D02*
X15750000Y-6262250D01*
X15690000Y-6202250D01*
X15630000Y-6262250D01*
X15690000Y-6322250D01*
X16071000Y-6322250D02*
X16131000Y-6262250D01*
X16071000Y-6202250D01*
X16011000Y-6262250D01*
X16071000Y-6322250D01*
X16452000Y-6322250D02*
X16512000Y-6262250D01*
X16452000Y-6202250D01*
X16392000Y-6262250D01*
X16452000Y-6322250D01*
X16833000Y-6322250D02*
X16893000Y-6262250D01*
X16833000Y-6202250D01*
X16773000Y-6262250D01*
X16833000Y-6322250D01*
X17214000Y-6322250D02*
X17274000Y-6262250D01*
X17214000Y-6202250D01*
X17154000Y-6262250D01*
X17214000Y-6322250D01*
X17595000Y-6322250D02*
X17655000Y-6262250D01*
X17595000Y-6202250D01*
X17535000Y-6262250D01*
X17595000Y-6322250D01*
X17976000Y-6322250D02*
X18036000Y-6262250D01*
X17976000Y-6202250D01*
X17916000Y-6262250D01*
X17976000Y-6322250D01*
X18172550Y-7266400D02*
X18232550Y-7206400D01*
X18172550Y-7146400D01*
X18112550Y-7206400D01*
X18172550Y-7266400D01*
X18172550Y-7647400D02*
X18232550Y-7587400D01*
X18172550Y-7527400D01*
X18112550Y-7587400D01*
X18172550Y-7647400D01*
X18185250Y-8384000D02*
X18245250Y-8324000D01*
X18185250Y-8264000D01*
X18125250Y-8324000D01*
X18185250Y-8384000D01*
X18185250Y-8765000D02*
X18245250Y-8705000D01*
X18185250Y-8645000D01*
X18125250Y-8705000D01*
X18185250Y-8765000D01*
X18185250Y-9146000D02*
X18245250Y-9086000D01*
X18185250Y-9026000D01*
X18125250Y-9086000D01*
X18185250Y-9146000D01*
X18185250Y-9527000D02*
X18245250Y-9467000D01*
X18185250Y-9407000D01*
X18125250Y-9467000D01*
X18185250Y-9527000D01*
X18185250Y-9908000D02*
X18245250Y-9848000D01*
X18185250Y-9788000D01*
X18125250Y-9848000D01*
X18185250Y-9908000D01*
X18185250Y-10289000D02*
X18245250Y-10229000D01*
X18185250Y-10169000D01*
X18125250Y-10229000D01*
X18185250Y-10289000D01*
X18185250Y-10670000D02*
X18245250Y-10610000D01*
X18185250Y-10550000D01*
X18125250Y-10610000D01*
X18185250Y-10670000D01*
X18185250Y-11051000D02*
X18245250Y-10991000D01*
X18185250Y-10931000D01*
X18125250Y-10991000D01*
X18185250Y-11051000D01*
X18185250Y-11686000D02*
X18245250Y-11626000D01*
X18185250Y-11566000D01*
X18125250Y-11626000D01*
X18185250Y-11686000D01*
X18185250Y-12067000D02*
X18245250Y-12007000D01*
X18185250Y-11947000D01*
X18125250Y-12007000D01*
X18185250Y-12067000D01*
X18185250Y-12448000D02*
X18245250Y-12388000D01*
X18185250Y-12328000D01*
X18125250Y-12388000D01*
X18185250Y-12448000D01*
X18185250Y-12829000D02*
X18245250Y-12769000D01*
X18185250Y-12709000D01*
X18125250Y-12769000D01*
X18185250Y-12829000D01*
X18185250Y-13210000D02*
X18245250Y-13150000D01*
X18185250Y-13090000D01*
X18125250Y-13150000D01*
X18185250Y-13210000D01*
X18185250Y-13591000D02*
X18245250Y-13531000D01*
X18185250Y-13471000D01*
X18125250Y-13531000D01*
X18185250Y-13591000D01*
X18185250Y-13972000D02*
X18245250Y-13912000D01*
X18185250Y-13852000D01*
X18125250Y-13912000D01*
X18185250Y-13972000D01*
X18185250Y-14353000D02*
X18245250Y-14293000D01*
X18185250Y-14233000D01*
X18125250Y-14293000D01*
X18185250Y-14353000D01*
X18357000Y-6322250D02*
X18417000Y-6262250D01*
X18357000Y-6202250D01*
X18297000Y-6262250D01*
X18357000Y-6322250D01*
D11*
X11903619Y-14940476D02*
X11903619Y-14740476D01*
X11951238Y-14740476D01*
X11979809Y-14750000D01*
X11998857Y-14769048D01*
X12008381Y-14788095D01*
X12017905Y-14826190D01*
X12017905Y-14854762D01*
X12008381Y-14892857D01*
X11998857Y-14911905D01*
X11979809Y-14930952D01*
X11951238Y-14940476D01*
X11903619Y-14940476D01*
X12103619Y-14940476D02*
X12103619Y-14807143D01*
X12103619Y-14845238D02*
X12113143Y-14826190D01*
X12122667Y-14816667D01*
X12141714Y-14807143D01*
X12160762Y-14807143D01*
X12227428Y-14940476D02*
X12227428Y-14807143D01*
X12227428Y-14740476D02*
X12217905Y-14750000D01*
X12227428Y-14759524D01*
X12236952Y-14750000D01*
X12227428Y-14740476D01*
X12227428Y-14759524D01*
X12351238Y-14940476D02*
X12332190Y-14930952D01*
X12322667Y-14911905D01*
X12322667Y-14740476D01*
X12456000Y-14940476D02*
X12436952Y-14930952D01*
X12427428Y-14911905D01*
X12427428Y-14740476D01*
X12684571Y-14940476D02*
X12684571Y-14740476D01*
X12751238Y-14883333D01*
X12817905Y-14740476D01*
X12817905Y-14940476D01*
X12998857Y-14940476D02*
X12998857Y-14835714D01*
X12989333Y-14816667D01*
X12970286Y-14807143D01*
X12932190Y-14807143D01*
X12913143Y-14816667D01*
X12998857Y-14930952D02*
X12979809Y-14940476D01*
X12932190Y-14940476D01*
X12913143Y-14930952D01*
X12903619Y-14911905D01*
X12903619Y-14892857D01*
X12913143Y-14873809D01*
X12932190Y-14864286D01*
X12979809Y-14864286D01*
X12998857Y-14854762D01*
X13094095Y-14807143D02*
X13094095Y-15007143D01*
X13094095Y-14816667D02*
X13113143Y-14807143D01*
X13151238Y-14807143D01*
X13170286Y-14816667D01*
X13179809Y-14826190D01*
X13189333Y-14845238D01*
X13189333Y-14902381D01*
X13179809Y-14921428D01*
X13170286Y-14930952D01*
X13151238Y-14940476D01*
X13113143Y-14940476D01*
X13094095Y-14930952D01*
X13275048Y-14921428D02*
X13284571Y-14930952D01*
X13275048Y-14940476D01*
X13265524Y-14930952D01*
X13275048Y-14921428D01*
X13275048Y-14940476D01*
X13275048Y-14816667D02*
X13284571Y-14826190D01*
X13275048Y-14835714D01*
X13265524Y-14826190D01*
X13275048Y-14816667D01*
X13275048Y-14835714D01*
D12*
X11606000Y-15250000D02*
X11646000Y-15290000D01*
X11646000Y-15250000D02*
X11606000Y-15290000D01*
D11*
X11941714Y-15160476D02*
X11960762Y-15160476D01*
X11979809Y-15170000D01*
X11989333Y-15179524D01*
X11998857Y-15198571D01*
X12008381Y-15236667D01*
X12008381Y-15284286D01*
X11998857Y-15322381D01*
X11989333Y-15341428D01*
X11979809Y-15350952D01*
X11960762Y-15360476D01*
X11941714Y-15360476D01*
X11922667Y-15350952D01*
X11913143Y-15341428D01*
X11903619Y-15322381D01*
X11894095Y-15284286D01*
X11894095Y-15236667D01*
X11903619Y-15198571D01*
X11913143Y-15179524D01*
X11922667Y-15170000D01*
X11941714Y-15160476D01*
X12094095Y-15341428D02*
X12103619Y-15350952D01*
X12094095Y-15360476D01*
X12084571Y-15350952D01*
X12094095Y-15341428D01*
X12094095Y-15360476D01*
X12275048Y-15227143D02*
X12275048Y-15360476D01*
X12227428Y-15150952D02*
X12179809Y-15293809D01*
X12303619Y-15293809D01*
X12417905Y-15160476D02*
X12436952Y-15160476D01*
X12456000Y-15170000D01*
X12465524Y-15179524D01*
X12475048Y-15198571D01*
X12484571Y-15236667D01*
X12484571Y-15284286D01*
X12475048Y-15322381D01*
X12465524Y-15341428D01*
X12456000Y-15350952D01*
X12436952Y-15360476D01*
X12417905Y-15360476D01*
X12398857Y-15350952D01*
X12389333Y-15341428D01*
X12379809Y-15322381D01*
X12370286Y-15284286D01*
X12370286Y-15236667D01*
X12379809Y-15198571D01*
X12389333Y-15179524D01*
X12398857Y-15170000D01*
X12417905Y-15160476D01*
X12608381Y-15160476D02*
X12627428Y-15160476D01*
X12646476Y-15170000D01*
X12656000Y-15179524D01*
X12665524Y-15198571D01*
X12675048Y-15236667D01*
X12675048Y-15284286D01*
X12665524Y-15322381D01*
X12656000Y-15341428D01*
X12646476Y-15350952D01*
X12627428Y-15360476D01*
X12608381Y-15360476D01*
X12589333Y-15350952D01*
X12579809Y-15341428D01*
X12570286Y-15322381D01*
X12560762Y-15284286D01*
X12560762Y-15236667D01*
X12570286Y-15198571D01*
X12579809Y-15179524D01*
X12589333Y-15170000D01*
X12608381Y-15160476D01*
X12760762Y-15360476D02*
X12760762Y-15227143D01*
X12760762Y-15246190D02*
X12770286Y-15236667D01*
X12789333Y-15227143D01*
X12817905Y-15227143D01*
X12836952Y-15236667D01*
X12846476Y-15255714D01*
X12846476Y-15360476D01*
X12846476Y-15255714D02*
X12856000Y-15236667D01*
X12875048Y-15227143D01*
X12903619Y-15227143D01*
X12922667Y-15236667D01*
X12932190Y-15255714D01*
X12932190Y-15360476D01*
X13027428Y-15360476D02*
X13027428Y-15227143D01*
X13027428Y-15246190D02*
X13036952Y-15236667D01*
X13056000Y-15227143D01*
X13084571Y-15227143D01*
X13103619Y-15236667D01*
X13113143Y-15255714D01*
X13113143Y-15360476D01*
X13113143Y-15255714D02*
X13122667Y-15236667D01*
X13141714Y-15227143D01*
X13170286Y-15227143D01*
X13189333Y-15236667D01*
X13198857Y-15255714D01*
X13198857Y-15360476D01*
X13589333Y-15150952D02*
X13417905Y-15408095D01*
X13846476Y-15160476D02*
X13865524Y-15160476D01*
X13884571Y-15170000D01*
X13894095Y-15179524D01*
X13903619Y-15198571D01*
X13913143Y-15236667D01*
X13913143Y-15284286D01*
X13903619Y-15322381D01*
X13894095Y-15341428D01*
X13884571Y-15350952D01*
X13865524Y-15360476D01*
X13846476Y-15360476D01*
X13827428Y-15350952D01*
X13817905Y-15341428D01*
X13808381Y-15322381D01*
X13798857Y-15284286D01*
X13798857Y-15236667D01*
X13808381Y-15198571D01*
X13817905Y-15179524D01*
X13827428Y-15170000D01*
X13846476Y-15160476D01*
X13998857Y-15341428D02*
X14008381Y-15350952D01*
X13998857Y-15360476D01*
X13989333Y-15350952D01*
X13998857Y-15341428D01*
X13998857Y-15360476D01*
X14132190Y-15160476D02*
X14151238Y-15160476D01*
X14170286Y-15170000D01*
X14179809Y-15179524D01*
X14189333Y-15198571D01*
X14198857Y-15236667D01*
X14198857Y-15284286D01*
X14189333Y-15322381D01*
X14179809Y-15341428D01*
X14170286Y-15350952D01*
X14151238Y-15360476D01*
X14132190Y-15360476D01*
X14113143Y-15350952D01*
X14103619Y-15341428D01*
X14094095Y-15322381D01*
X14084571Y-15284286D01*
X14084571Y-15236667D01*
X14094095Y-15198571D01*
X14103619Y-15179524D01*
X14113143Y-15170000D01*
X14132190Y-15160476D01*
X14389333Y-15360476D02*
X14275048Y-15360476D01*
X14332190Y-15360476D02*
X14332190Y-15160476D01*
X14313143Y-15189048D01*
X14294095Y-15208095D01*
X14275048Y-15217619D01*
X14570286Y-15160476D02*
X14475048Y-15160476D01*
X14465524Y-15255714D01*
X14475048Y-15246190D01*
X14494095Y-15236667D01*
X14541714Y-15236667D01*
X14560762Y-15246190D01*
X14570286Y-15255714D01*
X14579809Y-15274762D01*
X14579809Y-15322381D01*
X14570286Y-15341428D01*
X14560762Y-15350952D01*
X14541714Y-15360476D01*
X14494095Y-15360476D01*
X14475048Y-15350952D01*
X14465524Y-15341428D01*
X14646476Y-15160476D02*
X14779809Y-15160476D01*
X14694095Y-15360476D01*
X14846476Y-15160476D02*
X14846476Y-15198571D01*
X14922667Y-15160476D02*
X14922667Y-15198571D01*
X15217905Y-15436667D02*
X15208381Y-15427143D01*
X15189333Y-15398571D01*
X15179809Y-15379524D01*
X15170286Y-15350952D01*
X15160762Y-15303333D01*
X15160762Y-15265238D01*
X15170286Y-15217619D01*
X15179809Y-15189048D01*
X15189333Y-15170000D01*
X15208381Y-15141428D01*
X15217905Y-15131905D01*
X15379809Y-15227143D02*
X15379809Y-15360476D01*
X15332190Y-15150952D02*
X15284571Y-15293809D01*
X15408381Y-15293809D01*
X15589333Y-15360476D02*
X15475048Y-15360476D01*
X15532190Y-15360476D02*
X15532190Y-15160476D01*
X15513143Y-15189048D01*
X15494095Y-15208095D01*
X15475048Y-15217619D01*
X15827428Y-15360476D02*
X15827428Y-15160476D01*
X15913143Y-15360476D02*
X15913143Y-15255714D01*
X15903619Y-15236667D01*
X15884571Y-15227143D01*
X15856000Y-15227143D01*
X15836952Y-15236667D01*
X15827428Y-15246190D01*
X16036952Y-15360476D02*
X16017905Y-15350952D01*
X16008381Y-15341428D01*
X15998857Y-15322381D01*
X15998857Y-15265238D01*
X16008381Y-15246190D01*
X16017905Y-15236667D01*
X16036952Y-15227143D01*
X16065524Y-15227143D01*
X16084571Y-15236667D01*
X16094095Y-15246190D01*
X16103619Y-15265238D01*
X16103619Y-15322381D01*
X16094095Y-15341428D01*
X16084571Y-15350952D01*
X16065524Y-15360476D01*
X16036952Y-15360476D01*
X16217905Y-15360476D02*
X16198857Y-15350952D01*
X16189333Y-15331905D01*
X16189333Y-15160476D01*
X16370286Y-15350952D02*
X16351238Y-15360476D01*
X16313143Y-15360476D01*
X16294095Y-15350952D01*
X16284571Y-15331905D01*
X16284571Y-15255714D01*
X16294095Y-15236667D01*
X16313143Y-15227143D01*
X16351238Y-15227143D01*
X16370286Y-15236667D01*
X16379809Y-15255714D01*
X16379809Y-15274762D01*
X16284571Y-15293809D01*
X16456000Y-15350952D02*
X16475048Y-15360476D01*
X16513143Y-15360476D01*
X16532190Y-15350952D01*
X16541714Y-15331905D01*
X16541714Y-15322381D01*
X16532190Y-15303333D01*
X16513143Y-15293809D01*
X16484571Y-15293809D01*
X16465524Y-15284286D01*
X16456000Y-15265238D01*
X16456000Y-15255714D01*
X16465524Y-15236667D01*
X16484571Y-15227143D01*
X16513143Y-15227143D01*
X16532190Y-15236667D01*
X16608381Y-15436667D02*
X16617905Y-15427143D01*
X16636952Y-15398571D01*
X16646476Y-15379524D01*
X16656000Y-15350952D01*
X16665524Y-15303333D01*
X16665524Y-15265238D01*
X16656000Y-15217619D01*
X16646476Y-15189048D01*
X16636952Y-15170000D01*
X16617905Y-15141428D01*
X16608381Y-15131905D01*
D13*
X11646000Y-15534000D02*
G75*
G03*
X11646000Y-15534000I-35000J0D01*
G01*
D11*
X11941714Y-15424476D02*
X11960762Y-15424476D01*
X11979809Y-15434000D01*
X11989333Y-15443524D01*
X11998857Y-15462571D01*
X12008381Y-15500667D01*
X12008381Y-15548286D01*
X11998857Y-15586381D01*
X11989333Y-15605428D01*
X11979809Y-15614952D01*
X11960762Y-15624476D01*
X11941714Y-15624476D01*
X11922667Y-15614952D01*
X11913143Y-15605428D01*
X11903619Y-15586381D01*
X11894095Y-15548286D01*
X11894095Y-15500667D01*
X11903619Y-15462571D01*
X11913143Y-15443524D01*
X11922667Y-15434000D01*
X11941714Y-15424476D01*
X12094095Y-15605428D02*
X12103619Y-15614952D01*
X12094095Y-15624476D01*
X12084571Y-15614952D01*
X12094095Y-15605428D01*
X12094095Y-15624476D01*
X12170286Y-15424476D02*
X12303619Y-15424476D01*
X12217905Y-15624476D01*
X12417905Y-15424476D02*
X12436952Y-15424476D01*
X12456000Y-15434000D01*
X12465524Y-15443524D01*
X12475048Y-15462571D01*
X12484571Y-15500667D01*
X12484571Y-15548286D01*
X12475048Y-15586381D01*
X12465524Y-15605428D01*
X12456000Y-15614952D01*
X12436952Y-15624476D01*
X12417905Y-15624476D01*
X12398857Y-15614952D01*
X12389333Y-15605428D01*
X12379809Y-15586381D01*
X12370286Y-15548286D01*
X12370286Y-15500667D01*
X12379809Y-15462571D01*
X12389333Y-15443524D01*
X12398857Y-15434000D01*
X12417905Y-15424476D01*
X12608381Y-15424476D02*
X12627428Y-15424476D01*
X12646476Y-15434000D01*
X12656000Y-15443524D01*
X12665524Y-15462571D01*
X12675048Y-15500667D01*
X12675048Y-15548286D01*
X12665524Y-15586381D01*
X12656000Y-15605428D01*
X12646476Y-15614952D01*
X12627428Y-15624476D01*
X12608381Y-15624476D01*
X12589333Y-15614952D01*
X12579809Y-15605428D01*
X12570286Y-15586381D01*
X12560762Y-15548286D01*
X12560762Y-15500667D01*
X12570286Y-15462571D01*
X12579809Y-15443524D01*
X12589333Y-15434000D01*
X12608381Y-15424476D01*
X12760762Y-15624476D02*
X12760762Y-15491143D01*
X12760762Y-15510190D02*
X12770286Y-15500667D01*
X12789333Y-15491143D01*
X12817905Y-15491143D01*
X12836952Y-15500667D01*
X12846476Y-15519714D01*
X12846476Y-15624476D01*
X12846476Y-15519714D02*
X12856000Y-15500667D01*
X12875048Y-15491143D01*
X12903619Y-15491143D01*
X12922667Y-15500667D01*
X12932190Y-15519714D01*
X12932190Y-15624476D01*
X13027428Y-15624476D02*
X13027428Y-15491143D01*
X13027428Y-15510190D02*
X13036952Y-15500667D01*
X13056000Y-15491143D01*
X13084571Y-15491143D01*
X13103619Y-15500667D01*
X13113143Y-15519714D01*
X13113143Y-15624476D01*
X13113143Y-15519714D02*
X13122667Y-15500667D01*
X13141714Y-15491143D01*
X13170286Y-15491143D01*
X13189333Y-15500667D01*
X13198857Y-15519714D01*
X13198857Y-15624476D01*
X13589333Y-15414952D02*
X13417905Y-15672095D01*
X13846476Y-15424476D02*
X13865524Y-15424476D01*
X13884571Y-15434000D01*
X13894095Y-15443524D01*
X13903619Y-15462571D01*
X13913143Y-15500667D01*
X13913143Y-15548286D01*
X13903619Y-15586381D01*
X13894095Y-15605428D01*
X13884571Y-15614952D01*
X13865524Y-15624476D01*
X13846476Y-15624476D01*
X13827428Y-15614952D01*
X13817905Y-15605428D01*
X13808381Y-15586381D01*
X13798857Y-15548286D01*
X13798857Y-15500667D01*
X13808381Y-15462571D01*
X13817905Y-15443524D01*
X13827428Y-15434000D01*
X13846476Y-15424476D01*
X13998857Y-15605428D02*
X14008381Y-15614952D01*
X13998857Y-15624476D01*
X13989333Y-15614952D01*
X13998857Y-15605428D01*
X13998857Y-15624476D01*
X14132190Y-15424476D02*
X14151238Y-15424476D01*
X14170286Y-15434000D01*
X14179809Y-15443524D01*
X14189333Y-15462571D01*
X14198857Y-15500667D01*
X14198857Y-15548286D01*
X14189333Y-15586381D01*
X14179809Y-15605428D01*
X14170286Y-15614952D01*
X14151238Y-15624476D01*
X14132190Y-15624476D01*
X14113143Y-15614952D01*
X14103619Y-15605428D01*
X14094095Y-15586381D01*
X14084571Y-15548286D01*
X14084571Y-15500667D01*
X14094095Y-15462571D01*
X14103619Y-15443524D01*
X14113143Y-15434000D01*
X14132190Y-15424476D01*
X14275048Y-15443524D02*
X14284571Y-15434000D01*
X14303619Y-15424476D01*
X14351238Y-15424476D01*
X14370286Y-15434000D01*
X14379809Y-15443524D01*
X14389333Y-15462571D01*
X14389333Y-15481619D01*
X14379809Y-15510190D01*
X14265524Y-15624476D01*
X14389333Y-15624476D01*
X14456000Y-15424476D02*
X14589333Y-15424476D01*
X14503619Y-15624476D01*
X14751238Y-15424476D02*
X14713143Y-15424476D01*
X14694095Y-15434000D01*
X14684571Y-15443524D01*
X14665524Y-15472095D01*
X14656000Y-15510190D01*
X14656000Y-15586381D01*
X14665524Y-15605428D01*
X14675048Y-15614952D01*
X14694095Y-15624476D01*
X14732190Y-15624476D01*
X14751238Y-15614952D01*
X14760762Y-15605428D01*
X14770286Y-15586381D01*
X14770286Y-15538762D01*
X14760762Y-15519714D01*
X14751238Y-15510190D01*
X14732190Y-15500667D01*
X14694095Y-15500667D01*
X14675048Y-15510190D01*
X14665524Y-15519714D01*
X14656000Y-15538762D01*
X14846476Y-15424476D02*
X14846476Y-15462571D01*
X14922667Y-15424476D02*
X14922667Y-15462571D01*
X15217905Y-15700667D02*
X15208381Y-15691143D01*
X15189333Y-15662571D01*
X15179809Y-15643524D01*
X15170286Y-15614952D01*
X15160762Y-15567333D01*
X15160762Y-15529238D01*
X15170286Y-15481619D01*
X15179809Y-15453048D01*
X15189333Y-15434000D01*
X15208381Y-15405428D01*
X15217905Y-15395905D01*
X15322667Y-15510190D02*
X15303619Y-15500667D01*
X15294095Y-15491143D01*
X15284571Y-15472095D01*
X15284571Y-15462571D01*
X15294095Y-15443524D01*
X15303619Y-15434000D01*
X15322667Y-15424476D01*
X15360762Y-15424476D01*
X15379809Y-15434000D01*
X15389333Y-15443524D01*
X15398857Y-15462571D01*
X15398857Y-15472095D01*
X15389333Y-15491143D01*
X15379809Y-15500667D01*
X15360762Y-15510190D01*
X15322667Y-15510190D01*
X15303619Y-15519714D01*
X15294095Y-15529238D01*
X15284571Y-15548286D01*
X15284571Y-15586381D01*
X15294095Y-15605428D01*
X15303619Y-15614952D01*
X15322667Y-15624476D01*
X15360762Y-15624476D01*
X15379809Y-15614952D01*
X15389333Y-15605428D01*
X15398857Y-15586381D01*
X15398857Y-15548286D01*
X15389333Y-15529238D01*
X15379809Y-15519714D01*
X15360762Y-15510190D01*
X15636952Y-15624476D02*
X15636952Y-15424476D01*
X15722667Y-15624476D02*
X15722667Y-15519714D01*
X15713143Y-15500667D01*
X15694095Y-15491143D01*
X15665524Y-15491143D01*
X15646476Y-15500667D01*
X15636952Y-15510190D01*
X15846476Y-15624476D02*
X15827428Y-15614952D01*
X15817905Y-15605428D01*
X15808381Y-15586381D01*
X15808381Y-15529238D01*
X15817905Y-15510190D01*
X15827428Y-15500667D01*
X15846476Y-15491143D01*
X15875048Y-15491143D01*
X15894095Y-15500667D01*
X15903619Y-15510190D01*
X15913143Y-15529238D01*
X15913143Y-15586381D01*
X15903619Y-15605428D01*
X15894095Y-15614952D01*
X15875048Y-15624476D01*
X15846476Y-15624476D01*
X16027428Y-15624476D02*
X16008381Y-15614952D01*
X15998857Y-15595905D01*
X15998857Y-15424476D01*
X16179809Y-15614952D02*
X16160762Y-15624476D01*
X16122667Y-15624476D01*
X16103619Y-15614952D01*
X16094095Y-15595905D01*
X16094095Y-15519714D01*
X16103619Y-15500667D01*
X16122667Y-15491143D01*
X16160762Y-15491143D01*
X16179809Y-15500667D01*
X16189333Y-15519714D01*
X16189333Y-15538762D01*
X16094095Y-15557809D01*
X16265524Y-15614952D02*
X16284571Y-15624476D01*
X16322667Y-15624476D01*
X16341714Y-15614952D01*
X16351238Y-15595905D01*
X16351238Y-15586381D01*
X16341714Y-15567333D01*
X16322667Y-15557809D01*
X16294095Y-15557809D01*
X16275048Y-15548286D01*
X16265524Y-15529238D01*
X16265524Y-15519714D01*
X16275048Y-15500667D01*
X16294095Y-15491143D01*
X16322667Y-15491143D01*
X16341714Y-15500667D01*
X16417905Y-15700667D02*
X16427428Y-15691143D01*
X16446476Y-15662571D01*
X16456000Y-15643524D01*
X16465524Y-15614952D01*
X16475048Y-15567333D01*
X16475048Y-15529238D01*
X16465524Y-15481619D01*
X16456000Y-15453048D01*
X16446476Y-15434000D01*
X16427428Y-15405428D01*
X16417905Y-15395905D01*
D14*
X11606000Y-15758000D02*
X11606000Y-15838000D01*
X11566000Y-15798000D02*
X11646000Y-15798000D01*
D11*
X11941714Y-15688476D02*
X11960762Y-15688476D01*
X11979809Y-15698000D01*
X11989333Y-15707524D01*
X11998857Y-15726571D01*
X12008381Y-15764667D01*
X12008381Y-15812286D01*
X11998857Y-15850381D01*
X11989333Y-15869428D01*
X11979809Y-15878952D01*
X11960762Y-15888476D01*
X11941714Y-15888476D01*
X11922667Y-15878952D01*
X11913143Y-15869428D01*
X11903619Y-15850381D01*
X11894095Y-15812286D01*
X11894095Y-15764667D01*
X11903619Y-15726571D01*
X11913143Y-15707524D01*
X11922667Y-15698000D01*
X11941714Y-15688476D01*
X12094095Y-15869428D02*
X12103619Y-15878952D01*
X12094095Y-15888476D01*
X12084571Y-15878952D01*
X12094095Y-15869428D01*
X12094095Y-15888476D01*
X12217905Y-15774190D02*
X12198857Y-15764667D01*
X12189333Y-15755143D01*
X12179809Y-15736095D01*
X12179809Y-15726571D01*
X12189333Y-15707524D01*
X12198857Y-15698000D01*
X12217905Y-15688476D01*
X12256000Y-15688476D01*
X12275048Y-15698000D01*
X12284571Y-15707524D01*
X12294095Y-15726571D01*
X12294095Y-15736095D01*
X12284571Y-15755143D01*
X12275048Y-15764667D01*
X12256000Y-15774190D01*
X12217905Y-15774190D01*
X12198857Y-15783714D01*
X12189333Y-15793238D01*
X12179809Y-15812286D01*
X12179809Y-15850381D01*
X12189333Y-15869428D01*
X12198857Y-15878952D01*
X12217905Y-15888476D01*
X12256000Y-15888476D01*
X12275048Y-15878952D01*
X12284571Y-15869428D01*
X12294095Y-15850381D01*
X12294095Y-15812286D01*
X12284571Y-15793238D01*
X12275048Y-15783714D01*
X12256000Y-15774190D01*
X12417905Y-15688476D02*
X12436952Y-15688476D01*
X12456000Y-15698000D01*
X12465524Y-15707524D01*
X12475048Y-15726571D01*
X12484571Y-15764667D01*
X12484571Y-15812286D01*
X12475048Y-15850381D01*
X12465524Y-15869428D01*
X12456000Y-15878952D01*
X12436952Y-15888476D01*
X12417905Y-15888476D01*
X12398857Y-15878952D01*
X12389333Y-15869428D01*
X12379809Y-15850381D01*
X12370286Y-15812286D01*
X12370286Y-15764667D01*
X12379809Y-15726571D01*
X12389333Y-15707524D01*
X12398857Y-15698000D01*
X12417905Y-15688476D01*
X12608381Y-15688476D02*
X12627428Y-15688476D01*
X12646476Y-15698000D01*
X12656000Y-15707524D01*
X12665524Y-15726571D01*
X12675048Y-15764667D01*
X12675048Y-15812286D01*
X12665524Y-15850381D01*
X12656000Y-15869428D01*
X12646476Y-15878952D01*
X12627428Y-15888476D01*
X12608381Y-15888476D01*
X12589333Y-15878952D01*
X12579809Y-15869428D01*
X12570286Y-15850381D01*
X12560762Y-15812286D01*
X12560762Y-15764667D01*
X12570286Y-15726571D01*
X12579809Y-15707524D01*
X12589333Y-15698000D01*
X12608381Y-15688476D01*
X12760762Y-15888476D02*
X12760762Y-15755143D01*
X12760762Y-15774190D02*
X12770286Y-15764667D01*
X12789333Y-15755143D01*
X12817905Y-15755143D01*
X12836952Y-15764667D01*
X12846476Y-15783714D01*
X12846476Y-15888476D01*
X12846476Y-15783714D02*
X12856000Y-15764667D01*
X12875048Y-15755143D01*
X12903619Y-15755143D01*
X12922667Y-15764667D01*
X12932190Y-15783714D01*
X12932190Y-15888476D01*
X13027428Y-15888476D02*
X13027428Y-15755143D01*
X13027428Y-15774190D02*
X13036952Y-15764667D01*
X13056000Y-15755143D01*
X13084571Y-15755143D01*
X13103619Y-15764667D01*
X13113143Y-15783714D01*
X13113143Y-15888476D01*
X13113143Y-15783714D02*
X13122667Y-15764667D01*
X13141714Y-15755143D01*
X13170286Y-15755143D01*
X13189333Y-15764667D01*
X13198857Y-15783714D01*
X13198857Y-15888476D01*
X13589333Y-15678952D02*
X13417905Y-15936095D01*
X13846476Y-15688476D02*
X13865524Y-15688476D01*
X13884571Y-15698000D01*
X13894095Y-15707524D01*
X13903619Y-15726571D01*
X13913143Y-15764667D01*
X13913143Y-15812286D01*
X13903619Y-15850381D01*
X13894095Y-15869428D01*
X13884571Y-15878952D01*
X13865524Y-15888476D01*
X13846476Y-15888476D01*
X13827428Y-15878952D01*
X13817905Y-15869428D01*
X13808381Y-15850381D01*
X13798857Y-15812286D01*
X13798857Y-15764667D01*
X13808381Y-15726571D01*
X13817905Y-15707524D01*
X13827428Y-15698000D01*
X13846476Y-15688476D01*
X13998857Y-15869428D02*
X14008381Y-15878952D01*
X13998857Y-15888476D01*
X13989333Y-15878952D01*
X13998857Y-15869428D01*
X13998857Y-15888476D01*
X14132190Y-15688476D02*
X14151238Y-15688476D01*
X14170286Y-15698000D01*
X14179809Y-15707524D01*
X14189333Y-15726571D01*
X14198857Y-15764667D01*
X14198857Y-15812286D01*
X14189333Y-15850381D01*
X14179809Y-15869428D01*
X14170286Y-15878952D01*
X14151238Y-15888476D01*
X14132190Y-15888476D01*
X14113143Y-15878952D01*
X14103619Y-15869428D01*
X14094095Y-15850381D01*
X14084571Y-15812286D01*
X14084571Y-15764667D01*
X14094095Y-15726571D01*
X14103619Y-15707524D01*
X14113143Y-15698000D01*
X14132190Y-15688476D01*
X14265524Y-15688476D02*
X14389333Y-15688476D01*
X14322667Y-15764667D01*
X14351238Y-15764667D01*
X14370286Y-15774190D01*
X14379809Y-15783714D01*
X14389333Y-15802762D01*
X14389333Y-15850381D01*
X14379809Y-15869428D01*
X14370286Y-15878952D01*
X14351238Y-15888476D01*
X14294095Y-15888476D01*
X14275048Y-15878952D01*
X14265524Y-15869428D01*
X14579809Y-15888476D02*
X14465524Y-15888476D01*
X14522667Y-15888476D02*
X14522667Y-15688476D01*
X14503619Y-15717048D01*
X14484571Y-15736095D01*
X14465524Y-15745619D01*
X14760762Y-15688476D02*
X14665524Y-15688476D01*
X14656000Y-15783714D01*
X14665524Y-15774190D01*
X14684571Y-15764667D01*
X14732190Y-15764667D01*
X14751238Y-15774190D01*
X14760762Y-15783714D01*
X14770286Y-15802762D01*
X14770286Y-15850381D01*
X14760762Y-15869428D01*
X14751238Y-15878952D01*
X14732190Y-15888476D01*
X14684571Y-15888476D01*
X14665524Y-15878952D01*
X14656000Y-15869428D01*
X14846476Y-15688476D02*
X14846476Y-15726571D01*
X14922667Y-15688476D02*
X14922667Y-15726571D01*
X15217905Y-15964667D02*
X15208381Y-15955143D01*
X15189333Y-15926571D01*
X15179809Y-15907524D01*
X15170286Y-15878952D01*
X15160762Y-15831333D01*
X15160762Y-15793238D01*
X15170286Y-15745619D01*
X15179809Y-15717048D01*
X15189333Y-15698000D01*
X15208381Y-15669428D01*
X15217905Y-15659905D01*
X15322667Y-15774190D02*
X15303619Y-15764667D01*
X15294095Y-15755143D01*
X15284571Y-15736095D01*
X15284571Y-15726571D01*
X15294095Y-15707524D01*
X15303619Y-15698000D01*
X15322667Y-15688476D01*
X15360762Y-15688476D01*
X15379809Y-15698000D01*
X15389333Y-15707524D01*
X15398857Y-15726571D01*
X15398857Y-15736095D01*
X15389333Y-15755143D01*
X15379809Y-15764667D01*
X15360762Y-15774190D01*
X15322667Y-15774190D01*
X15303619Y-15783714D01*
X15294095Y-15793238D01*
X15284571Y-15812286D01*
X15284571Y-15850381D01*
X15294095Y-15869428D01*
X15303619Y-15878952D01*
X15322667Y-15888476D01*
X15360762Y-15888476D01*
X15379809Y-15878952D01*
X15389333Y-15869428D01*
X15398857Y-15850381D01*
X15398857Y-15812286D01*
X15389333Y-15793238D01*
X15379809Y-15783714D01*
X15360762Y-15774190D01*
X15513143Y-15774190D02*
X15494095Y-15764667D01*
X15484571Y-15755143D01*
X15475048Y-15736095D01*
X15475048Y-15726571D01*
X15484571Y-15707524D01*
X15494095Y-15698000D01*
X15513143Y-15688476D01*
X15551238Y-15688476D01*
X15570286Y-15698000D01*
X15579809Y-15707524D01*
X15589333Y-15726571D01*
X15589333Y-15736095D01*
X15579809Y-15755143D01*
X15570286Y-15764667D01*
X15551238Y-15774190D01*
X15513143Y-15774190D01*
X15494095Y-15783714D01*
X15484571Y-15793238D01*
X15475048Y-15812286D01*
X15475048Y-15850381D01*
X15484571Y-15869428D01*
X15494095Y-15878952D01*
X15513143Y-15888476D01*
X15551238Y-15888476D01*
X15570286Y-15878952D01*
X15579809Y-15869428D01*
X15589333Y-15850381D01*
X15589333Y-15812286D01*
X15579809Y-15793238D01*
X15570286Y-15783714D01*
X15551238Y-15774190D01*
X15827428Y-15888476D02*
X15827428Y-15688476D01*
X15913143Y-15888476D02*
X15913143Y-15783714D01*
X15903619Y-15764667D01*
X15884571Y-15755143D01*
X15856000Y-15755143D01*
X15836952Y-15764667D01*
X15827428Y-15774190D01*
X16036952Y-15888476D02*
X16017905Y-15878952D01*
X16008381Y-15869428D01*
X15998857Y-15850381D01*
X15998857Y-15793238D01*
X16008381Y-15774190D01*
X16017905Y-15764667D01*
X16036952Y-15755143D01*
X16065524Y-15755143D01*
X16084571Y-15764667D01*
X16094095Y-15774190D01*
X16103619Y-15793238D01*
X16103619Y-15850381D01*
X16094095Y-15869428D01*
X16084571Y-15878952D01*
X16065524Y-15888476D01*
X16036952Y-15888476D01*
X16217905Y-15888476D02*
X16198857Y-15878952D01*
X16189333Y-15859905D01*
X16189333Y-15688476D01*
X16370286Y-15878952D02*
X16351238Y-15888476D01*
X16313143Y-15888476D01*
X16294095Y-15878952D01*
X16284571Y-15859905D01*
X16284571Y-15783714D01*
X16294095Y-15764667D01*
X16313143Y-15755143D01*
X16351238Y-15755143D01*
X16370286Y-15764667D01*
X16379809Y-15783714D01*
X16379809Y-15802762D01*
X16284571Y-15821809D01*
X16456000Y-15878952D02*
X16475048Y-15888476D01*
X16513143Y-15888476D01*
X16532190Y-15878952D01*
X16541714Y-15859905D01*
X16541714Y-15850381D01*
X16532190Y-15831333D01*
X16513143Y-15821809D01*
X16484571Y-15821809D01*
X16465524Y-15812286D01*
X16456000Y-15793238D01*
X16456000Y-15783714D01*
X16465524Y-15764667D01*
X16484571Y-15755143D01*
X16513143Y-15755143D01*
X16532190Y-15764667D01*
X16608381Y-15964667D02*
X16617905Y-15955143D01*
X16636952Y-15926571D01*
X16646476Y-15907524D01*
X16656000Y-15878952D01*
X16665524Y-15831333D01*
X16665524Y-15793238D01*
X16656000Y-15745619D01*
X16646476Y-15717048D01*
X16636952Y-15698000D01*
X16617905Y-15669428D01*
X16608381Y-15659905D01*
D15*
X11631356Y-16097356D02*
X11631356Y-16026644D01*
X11560644Y-16026644D01*
X11560644Y-16097356D01*
X11631356Y-16097356D01*
D11*
X12008381Y-16152476D02*
X11894095Y-16152476D01*
X11951238Y-16152476D02*
X11951238Y-15952476D01*
X11932190Y-15981048D01*
X11913143Y-16000095D01*
X11894095Y-16009619D01*
X12094095Y-16133428D02*
X12103619Y-16142952D01*
X12094095Y-16152476D01*
X12084571Y-16142952D01*
X12094095Y-16133428D01*
X12094095Y-16152476D01*
X12227428Y-15952476D02*
X12246476Y-15952476D01*
X12265524Y-15962000D01*
X12275048Y-15971524D01*
X12284571Y-15990571D01*
X12294095Y-16028667D01*
X12294095Y-16076286D01*
X12284571Y-16114381D01*
X12275048Y-16133428D01*
X12265524Y-16142952D01*
X12246476Y-16152476D01*
X12227428Y-16152476D01*
X12208381Y-16142952D01*
X12198857Y-16133428D01*
X12189333Y-16114381D01*
X12179809Y-16076286D01*
X12179809Y-16028667D01*
X12189333Y-15990571D01*
X12198857Y-15971524D01*
X12208381Y-15962000D01*
X12227428Y-15952476D01*
X12417905Y-15952476D02*
X12436952Y-15952476D01*
X12456000Y-15962000D01*
X12465524Y-15971524D01*
X12475048Y-15990571D01*
X12484571Y-16028667D01*
X12484571Y-16076286D01*
X12475048Y-16114381D01*
X12465524Y-16133428D01*
X12456000Y-16142952D01*
X12436952Y-16152476D01*
X12417905Y-16152476D01*
X12398857Y-16142952D01*
X12389333Y-16133428D01*
X12379809Y-16114381D01*
X12370286Y-16076286D01*
X12370286Y-16028667D01*
X12379809Y-15990571D01*
X12389333Y-15971524D01*
X12398857Y-15962000D01*
X12417905Y-15952476D01*
X12608381Y-15952476D02*
X12627428Y-15952476D01*
X12646476Y-15962000D01*
X12656000Y-15971524D01*
X12665524Y-15990571D01*
X12675048Y-16028667D01*
X12675048Y-16076286D01*
X12665524Y-16114381D01*
X12656000Y-16133428D01*
X12646476Y-16142952D01*
X12627428Y-16152476D01*
X12608381Y-16152476D01*
X12589333Y-16142952D01*
X12579809Y-16133428D01*
X12570286Y-16114381D01*
X12560762Y-16076286D01*
X12560762Y-16028667D01*
X12570286Y-15990571D01*
X12579809Y-15971524D01*
X12589333Y-15962000D01*
X12608381Y-15952476D01*
X12760762Y-16152476D02*
X12760762Y-16019143D01*
X12760762Y-16038190D02*
X12770286Y-16028667D01*
X12789333Y-16019143D01*
X12817905Y-16019143D01*
X12836952Y-16028667D01*
X12846476Y-16047714D01*
X12846476Y-16152476D01*
X12846476Y-16047714D02*
X12856000Y-16028667D01*
X12875048Y-16019143D01*
X12903619Y-16019143D01*
X12922667Y-16028667D01*
X12932190Y-16047714D01*
X12932190Y-16152476D01*
X13027428Y-16152476D02*
X13027428Y-16019143D01*
X13027428Y-16038190D02*
X13036952Y-16028667D01*
X13056000Y-16019143D01*
X13084571Y-16019143D01*
X13103619Y-16028667D01*
X13113143Y-16047714D01*
X13113143Y-16152476D01*
X13113143Y-16047714D02*
X13122667Y-16028667D01*
X13141714Y-16019143D01*
X13170286Y-16019143D01*
X13189333Y-16028667D01*
X13198857Y-16047714D01*
X13198857Y-16152476D01*
X13589333Y-15942952D02*
X13417905Y-16200095D01*
X13846476Y-15952476D02*
X13865524Y-15952476D01*
X13884571Y-15962000D01*
X13894095Y-15971524D01*
X13903619Y-15990571D01*
X13913143Y-16028667D01*
X13913143Y-16076286D01*
X13903619Y-16114381D01*
X13894095Y-16133428D01*
X13884571Y-16142952D01*
X13865524Y-16152476D01*
X13846476Y-16152476D01*
X13827428Y-16142952D01*
X13817905Y-16133428D01*
X13808381Y-16114381D01*
X13798857Y-16076286D01*
X13798857Y-16028667D01*
X13808381Y-15990571D01*
X13817905Y-15971524D01*
X13827428Y-15962000D01*
X13846476Y-15952476D01*
X13998857Y-16133428D02*
X14008381Y-16142952D01*
X13998857Y-16152476D01*
X13989333Y-16142952D01*
X13998857Y-16133428D01*
X13998857Y-16152476D01*
X14132190Y-15952476D02*
X14151238Y-15952476D01*
X14170286Y-15962000D01*
X14179809Y-15971524D01*
X14189333Y-15990571D01*
X14198857Y-16028667D01*
X14198857Y-16076286D01*
X14189333Y-16114381D01*
X14179809Y-16133428D01*
X14170286Y-16142952D01*
X14151238Y-16152476D01*
X14132190Y-16152476D01*
X14113143Y-16142952D01*
X14103619Y-16133428D01*
X14094095Y-16114381D01*
X14084571Y-16076286D01*
X14084571Y-16028667D01*
X14094095Y-15990571D01*
X14103619Y-15971524D01*
X14113143Y-15962000D01*
X14132190Y-15952476D01*
X14265524Y-15952476D02*
X14389333Y-15952476D01*
X14322667Y-16028667D01*
X14351238Y-16028667D01*
X14370286Y-16038190D01*
X14379809Y-16047714D01*
X14389333Y-16066762D01*
X14389333Y-16114381D01*
X14379809Y-16133428D01*
X14370286Y-16142952D01*
X14351238Y-16152476D01*
X14294095Y-16152476D01*
X14275048Y-16142952D01*
X14265524Y-16133428D01*
X14484571Y-16152476D02*
X14522667Y-16152476D01*
X14541714Y-16142952D01*
X14551238Y-16133428D01*
X14570286Y-16104857D01*
X14579809Y-16066762D01*
X14579809Y-15990571D01*
X14570286Y-15971524D01*
X14560762Y-15962000D01*
X14541714Y-15952476D01*
X14503619Y-15952476D01*
X14484571Y-15962000D01*
X14475048Y-15971524D01*
X14465524Y-15990571D01*
X14465524Y-16038190D01*
X14475048Y-16057238D01*
X14484571Y-16066762D01*
X14503619Y-16076286D01*
X14541714Y-16076286D01*
X14560762Y-16066762D01*
X14570286Y-16057238D01*
X14579809Y-16038190D01*
X14751238Y-16019143D02*
X14751238Y-16152476D01*
X14703619Y-15942952D02*
X14656000Y-16085809D01*
X14779809Y-16085809D01*
X14846476Y-15952476D02*
X14846476Y-15990571D01*
X14922667Y-15952476D02*
X14922667Y-15990571D01*
X15217905Y-16228667D02*
X15208381Y-16219143D01*
X15189333Y-16190571D01*
X15179809Y-16171524D01*
X15170286Y-16142952D01*
X15160762Y-16095333D01*
X15160762Y-16057238D01*
X15170286Y-16009619D01*
X15179809Y-15981048D01*
X15189333Y-15962000D01*
X15208381Y-15933428D01*
X15217905Y-15923905D01*
X15275048Y-15952476D02*
X15398857Y-15952476D01*
X15332190Y-16028667D01*
X15360762Y-16028667D01*
X15379809Y-16038190D01*
X15389333Y-16047714D01*
X15398857Y-16066762D01*
X15398857Y-16114381D01*
X15389333Y-16133428D01*
X15379809Y-16142952D01*
X15360762Y-16152476D01*
X15303619Y-16152476D01*
X15284571Y-16142952D01*
X15275048Y-16133428D01*
X15475048Y-15971524D02*
X15484571Y-15962000D01*
X15503619Y-15952476D01*
X15551238Y-15952476D01*
X15570286Y-15962000D01*
X15579809Y-15971524D01*
X15589333Y-15990571D01*
X15589333Y-16009619D01*
X15579809Y-16038190D01*
X15465524Y-16152476D01*
X15589333Y-16152476D01*
X15827428Y-16152476D02*
X15827428Y-15952476D01*
X15913143Y-16152476D02*
X15913143Y-16047714D01*
X15903619Y-16028667D01*
X15884571Y-16019143D01*
X15856000Y-16019143D01*
X15836952Y-16028667D01*
X15827428Y-16038190D01*
X16036952Y-16152476D02*
X16017905Y-16142952D01*
X16008381Y-16133428D01*
X15998857Y-16114381D01*
X15998857Y-16057238D01*
X16008381Y-16038190D01*
X16017905Y-16028667D01*
X16036952Y-16019143D01*
X16065524Y-16019143D01*
X16084571Y-16028667D01*
X16094095Y-16038190D01*
X16103619Y-16057238D01*
X16103619Y-16114381D01*
X16094095Y-16133428D01*
X16084571Y-16142952D01*
X16065524Y-16152476D01*
X16036952Y-16152476D01*
X16217905Y-16152476D02*
X16198857Y-16142952D01*
X16189333Y-16123905D01*
X16189333Y-15952476D01*
X16370286Y-16142952D02*
X16351238Y-16152476D01*
X16313143Y-16152476D01*
X16294095Y-16142952D01*
X16284571Y-16123905D01*
X16284571Y-16047714D01*
X16294095Y-16028667D01*
X16313143Y-16019143D01*
X16351238Y-16019143D01*
X16370286Y-16028667D01*
X16379809Y-16047714D01*
X16379809Y-16066762D01*
X16284571Y-16085809D01*
X16456000Y-16142952D02*
X16475048Y-16152476D01*
X16513143Y-16152476D01*
X16532190Y-16142952D01*
X16541714Y-16123905D01*
X16541714Y-16114381D01*
X16532190Y-16095333D01*
X16513143Y-16085809D01*
X16484571Y-16085809D01*
X16465524Y-16076286D01*
X16456000Y-16057238D01*
X16456000Y-16047714D01*
X16465524Y-16028667D01*
X16484571Y-16019143D01*
X16513143Y-16019143D01*
X16532190Y-16028667D01*
X16608381Y-16228667D02*
X16617905Y-16219143D01*
X16636952Y-16190571D01*
X16646476Y-16171524D01*
X16656000Y-16142952D01*
X16665524Y-16095333D01*
X16665524Y-16057238D01*
X16656000Y-16009619D01*
X16646476Y-15981048D01*
X16636952Y-15962000D01*
X16617905Y-15933428D01*
X16608381Y-15923905D01*
D16*
X11586000Y-16386000D02*
X11646000Y-16326000D01*
X11586000Y-16266000D01*
X11526000Y-16326000D01*
X11586000Y-16386000D01*
D11*
X12008381Y-16416476D02*
X11894095Y-16416476D01*
X11951238Y-16416476D02*
X11951238Y-16216476D01*
X11932190Y-16245048D01*
X11913143Y-16264095D01*
X11894095Y-16273619D01*
X12094095Y-16397428D02*
X12103619Y-16406952D01*
X12094095Y-16416476D01*
X12084571Y-16406952D01*
X12094095Y-16397428D01*
X12094095Y-16416476D01*
X12179809Y-16235524D02*
X12189333Y-16226000D01*
X12208381Y-16216476D01*
X12256000Y-16216476D01*
X12275048Y-16226000D01*
X12284571Y-16235524D01*
X12294095Y-16254571D01*
X12294095Y-16273619D01*
X12284571Y-16302190D01*
X12170286Y-16416476D01*
X12294095Y-16416476D01*
X12417905Y-16216476D02*
X12436952Y-16216476D01*
X12456000Y-16226000D01*
X12465524Y-16235524D01*
X12475048Y-16254571D01*
X12484571Y-16292667D01*
X12484571Y-16340286D01*
X12475048Y-16378381D01*
X12465524Y-16397428D01*
X12456000Y-16406952D01*
X12436952Y-16416476D01*
X12417905Y-16416476D01*
X12398857Y-16406952D01*
X12389333Y-16397428D01*
X12379809Y-16378381D01*
X12370286Y-16340286D01*
X12370286Y-16292667D01*
X12379809Y-16254571D01*
X12389333Y-16235524D01*
X12398857Y-16226000D01*
X12417905Y-16216476D01*
X12608381Y-16216476D02*
X12627428Y-16216476D01*
X12646476Y-16226000D01*
X12656000Y-16235524D01*
X12665524Y-16254571D01*
X12675048Y-16292667D01*
X12675048Y-16340286D01*
X12665524Y-16378381D01*
X12656000Y-16397428D01*
X12646476Y-16406952D01*
X12627428Y-16416476D01*
X12608381Y-16416476D01*
X12589333Y-16406952D01*
X12579809Y-16397428D01*
X12570286Y-16378381D01*
X12560762Y-16340286D01*
X12560762Y-16292667D01*
X12570286Y-16254571D01*
X12579809Y-16235524D01*
X12589333Y-16226000D01*
X12608381Y-16216476D01*
X12760762Y-16416476D02*
X12760762Y-16283143D01*
X12760762Y-16302190D02*
X12770286Y-16292667D01*
X12789333Y-16283143D01*
X12817905Y-16283143D01*
X12836952Y-16292667D01*
X12846476Y-16311714D01*
X12846476Y-16416476D01*
X12846476Y-16311714D02*
X12856000Y-16292667D01*
X12875048Y-16283143D01*
X12903619Y-16283143D01*
X12922667Y-16292667D01*
X12932190Y-16311714D01*
X12932190Y-16416476D01*
X13027428Y-16416476D02*
X13027428Y-16283143D01*
X13027428Y-16302190D02*
X13036952Y-16292667D01*
X13056000Y-16283143D01*
X13084571Y-16283143D01*
X13103619Y-16292667D01*
X13113143Y-16311714D01*
X13113143Y-16416476D01*
X13113143Y-16311714D02*
X13122667Y-16292667D01*
X13141714Y-16283143D01*
X13170286Y-16283143D01*
X13189333Y-16292667D01*
X13198857Y-16311714D01*
X13198857Y-16416476D01*
X13589333Y-16206952D02*
X13417905Y-16464095D01*
X13846476Y-16216476D02*
X13865524Y-16216476D01*
X13884571Y-16226000D01*
X13894095Y-16235524D01*
X13903619Y-16254571D01*
X13913143Y-16292667D01*
X13913143Y-16340286D01*
X13903619Y-16378381D01*
X13894095Y-16397428D01*
X13884571Y-16406952D01*
X13865524Y-16416476D01*
X13846476Y-16416476D01*
X13827428Y-16406952D01*
X13817905Y-16397428D01*
X13808381Y-16378381D01*
X13798857Y-16340286D01*
X13798857Y-16292667D01*
X13808381Y-16254571D01*
X13817905Y-16235524D01*
X13827428Y-16226000D01*
X13846476Y-16216476D01*
X13998857Y-16397428D02*
X14008381Y-16406952D01*
X13998857Y-16416476D01*
X13989333Y-16406952D01*
X13998857Y-16397428D01*
X13998857Y-16416476D01*
X14132190Y-16216476D02*
X14151238Y-16216476D01*
X14170286Y-16226000D01*
X14179809Y-16235524D01*
X14189333Y-16254571D01*
X14198857Y-16292667D01*
X14198857Y-16340286D01*
X14189333Y-16378381D01*
X14179809Y-16397428D01*
X14170286Y-16406952D01*
X14151238Y-16416476D01*
X14132190Y-16416476D01*
X14113143Y-16406952D01*
X14103619Y-16397428D01*
X14094095Y-16378381D01*
X14084571Y-16340286D01*
X14084571Y-16292667D01*
X14094095Y-16254571D01*
X14103619Y-16235524D01*
X14113143Y-16226000D01*
X14132190Y-16216476D01*
X14370286Y-16283143D02*
X14370286Y-16416476D01*
X14322667Y-16206952D02*
X14275048Y-16349809D01*
X14398857Y-16349809D01*
X14456000Y-16216476D02*
X14589333Y-16216476D01*
X14503619Y-16416476D01*
X14656000Y-16235524D02*
X14665524Y-16226000D01*
X14684571Y-16216476D01*
X14732190Y-16216476D01*
X14751238Y-16226000D01*
X14760762Y-16235524D01*
X14770286Y-16254571D01*
X14770286Y-16273619D01*
X14760762Y-16302190D01*
X14646476Y-16416476D01*
X14770286Y-16416476D01*
X14846476Y-16216476D02*
X14846476Y-16254571D01*
X14922667Y-16216476D02*
X14922667Y-16254571D01*
X15217905Y-16492667D02*
X15208381Y-16483143D01*
X15189333Y-16454571D01*
X15179809Y-16435524D01*
X15170286Y-16406952D01*
X15160762Y-16359333D01*
X15160762Y-16321238D01*
X15170286Y-16273619D01*
X15179809Y-16245048D01*
X15189333Y-16226000D01*
X15208381Y-16197428D01*
X15217905Y-16187905D01*
X15275048Y-16216476D02*
X15398857Y-16216476D01*
X15332190Y-16292667D01*
X15360762Y-16292667D01*
X15379809Y-16302190D01*
X15389333Y-16311714D01*
X15398857Y-16330762D01*
X15398857Y-16378381D01*
X15389333Y-16397428D01*
X15379809Y-16406952D01*
X15360762Y-16416476D01*
X15303619Y-16416476D01*
X15284571Y-16406952D01*
X15275048Y-16397428D01*
X15570286Y-16283143D02*
X15570286Y-16416476D01*
X15522667Y-16206952D02*
X15475048Y-16349809D01*
X15598857Y-16349809D01*
X15827428Y-16416476D02*
X15827428Y-16216476D01*
X15913143Y-16416476D02*
X15913143Y-16311714D01*
X15903619Y-16292667D01*
X15884571Y-16283143D01*
X15856000Y-16283143D01*
X15836952Y-16292667D01*
X15827428Y-16302190D01*
X16036952Y-16416476D02*
X16017905Y-16406952D01*
X16008381Y-16397428D01*
X15998857Y-16378381D01*
X15998857Y-16321238D01*
X16008381Y-16302190D01*
X16017905Y-16292667D01*
X16036952Y-16283143D01*
X16065524Y-16283143D01*
X16084571Y-16292667D01*
X16094095Y-16302190D01*
X16103619Y-16321238D01*
X16103619Y-16378381D01*
X16094095Y-16397428D01*
X16084571Y-16406952D01*
X16065524Y-16416476D01*
X16036952Y-16416476D01*
X16217905Y-16416476D02*
X16198857Y-16406952D01*
X16189333Y-16387905D01*
X16189333Y-16216476D01*
X16370286Y-16406952D02*
X16351238Y-16416476D01*
X16313143Y-16416476D01*
X16294095Y-16406952D01*
X16284571Y-16387905D01*
X16284571Y-16311714D01*
X16294095Y-16292667D01*
X16313143Y-16283143D01*
X16351238Y-16283143D01*
X16370286Y-16292667D01*
X16379809Y-16311714D01*
X16379809Y-16330762D01*
X16284571Y-16349809D01*
X16456000Y-16406952D02*
X16475048Y-16416476D01*
X16513143Y-16416476D01*
X16532190Y-16406952D01*
X16541714Y-16387905D01*
X16541714Y-16378381D01*
X16532190Y-16359333D01*
X16513143Y-16349809D01*
X16484571Y-16349809D01*
X16465524Y-16340286D01*
X16456000Y-16321238D01*
X16456000Y-16311714D01*
X16465524Y-16292667D01*
X16484571Y-16283143D01*
X16513143Y-16283143D01*
X16532190Y-16292667D01*
X16608381Y-16492667D02*
X16617905Y-16483143D01*
X16636952Y-16454571D01*
X16646476Y-16435524D01*
X16656000Y-16406952D01*
X16665524Y-16359333D01*
X16665524Y-16321238D01*
X16656000Y-16273619D01*
X16646476Y-16245048D01*
X16636952Y-16226000D01*
X16617905Y-16197428D01*
X16608381Y-16187905D01*
M02*
