G04 #@! TF.GenerationSoftware,KiCad,Pcbnew,(6.0.0)*
G04 #@! TF.CreationDate,2022-11-09T00:29:18-05:00*
G04 #@! TF.ProjectId,arcade tester controller input,61726361-6465-4207-9465-737465722063,rev?*
G04 #@! TF.SameCoordinates,Original*
G04 #@! TF.FileFunction,Soldermask,Top*
G04 #@! TF.FilePolarity,Negative*
%FSLAX46Y46*%
G04 Gerber Fmt 4.6, Leading zero omitted, Abs format (unit mm)*
G04 Created by KiCad (PCBNEW (6.0.0)) date 2022-11-09 00:29:18*
%MOMM*%
%LPD*%
G01*
G04 APERTURE LIST*
G04 Aperture macros list*
%AMRoundRect*
0 Rectangle with rounded corners*
0 $1 Rounding radius*
0 $2 $3 $4 $5 $6 $7 $8 $9 X,Y pos of 4 corners*
0 Add a 4 corners polygon primitive as box body*
4,1,4,$2,$3,$4,$5,$6,$7,$8,$9,$2,$3,0*
0 Add four circle primitives for the rounded corners*
1,1,$1+$1,$2,$3*
1,1,$1+$1,$4,$5*
1,1,$1+$1,$6,$7*
1,1,$1+$1,$8,$9*
0 Add four rect primitives between the rounded corners*
20,1,$1+$1,$2,$3,$4,$5,0*
20,1,$1+$1,$4,$5,$6,$7,0*
20,1,$1+$1,$6,$7,$8,$9,0*
20,1,$1+$1,$8,$9,$2,$3,0*%
G04 Aperture macros list end*
%ADD10R,1.600000X1.600000*%
%ADD11C,1.600000*%
%ADD12R,1.700000X1.700000*%
%ADD13O,1.700000X1.700000*%
%ADD14RoundRect,0.250000X-0.650000X-1.550000X0.650000X-1.550000X0.650000X1.550000X-0.650000X1.550000X0*%
%ADD15O,1.800000X3.600000*%
%ADD16RoundRect,0.250000X-1.550000X0.650000X-1.550000X-0.650000X1.550000X-0.650000X1.550000X0.650000X0*%
%ADD17O,3.600000X1.800000*%
%ADD18O,1.600000X1.600000*%
%ADD19C,1.500000*%
%ADD20C,1.400000*%
%ADD21O,1.400000X1.400000*%
G04 APERTURE END LIST*
D10*
X172212000Y-73470888D03*
D11*
X172212000Y-75970888D03*
D12*
X166660000Y-92710000D03*
D13*
X166660000Y-95250000D03*
X164120000Y-92710000D03*
X164120000Y-95250000D03*
X161580000Y-92710000D03*
X161580000Y-95250000D03*
X159040000Y-92710000D03*
X159040000Y-95250000D03*
X156500000Y-92710000D03*
X156500000Y-95250000D03*
D12*
X144780000Y-92710000D03*
D13*
X144780000Y-95250000D03*
X142240000Y-92710000D03*
X142240000Y-95250000D03*
X139700000Y-92710000D03*
X139700000Y-95250000D03*
X137160000Y-92710000D03*
X137160000Y-95250000D03*
X134620000Y-92710000D03*
X134620000Y-95250000D03*
D14*
X123880000Y-62622500D03*
D15*
X127690000Y-62622500D03*
X131500000Y-62622500D03*
X135310000Y-62622500D03*
X139120000Y-62622500D03*
X142930000Y-62622500D03*
X146740000Y-62622500D03*
X150550000Y-62622500D03*
D14*
X156900000Y-62622500D03*
D15*
X160710000Y-62622500D03*
X164520000Y-62622500D03*
X168330000Y-62622500D03*
X172140000Y-62622500D03*
X175950000Y-62622500D03*
X179760000Y-62622500D03*
X183570000Y-62622500D03*
D12*
X170815000Y-120015000D03*
D13*
X168275000Y-120015000D03*
X165735000Y-120015000D03*
X163195000Y-120015000D03*
X160655000Y-120015000D03*
X158115000Y-120015000D03*
D16*
X181852500Y-116260000D03*
D17*
X181852500Y-120070000D03*
X181852500Y-123880000D03*
X181852500Y-127690000D03*
X181852500Y-131500000D03*
X181852500Y-135310000D03*
X181852500Y-139120000D03*
X181852500Y-142930000D03*
D10*
X169535000Y-142865000D03*
D18*
X166995000Y-142865000D03*
X164455000Y-142865000D03*
X161915000Y-142865000D03*
X159375000Y-142865000D03*
X156835000Y-142865000D03*
X154295000Y-142865000D03*
X151755000Y-142865000D03*
X149215000Y-142865000D03*
X146675000Y-142865000D03*
X144135000Y-142865000D03*
X141595000Y-142865000D03*
X139055000Y-142865000D03*
X136515000Y-142865000D03*
X136515000Y-135245000D03*
X139055000Y-135245000D03*
X141595000Y-135245000D03*
X144135000Y-135245000D03*
X146675000Y-135245000D03*
X149215000Y-135245000D03*
X151755000Y-135245000D03*
X154295000Y-135245000D03*
X156835000Y-135245000D03*
X159375000Y-135245000D03*
X161915000Y-135245000D03*
X164455000Y-135245000D03*
X166995000Y-135245000D03*
X169535000Y-135245000D03*
D10*
X165725000Y-115560000D03*
D18*
X163185000Y-115560000D03*
X160645000Y-115560000D03*
X158105000Y-115560000D03*
X155565000Y-115560000D03*
X153025000Y-115560000D03*
X150485000Y-115560000D03*
X147945000Y-115560000D03*
X145405000Y-115560000D03*
X142865000Y-115560000D03*
X140325000Y-115560000D03*
X137785000Y-115560000D03*
X135245000Y-115560000D03*
X132705000Y-115560000D03*
X132705000Y-107940000D03*
X135245000Y-107940000D03*
X137785000Y-107940000D03*
X140325000Y-107940000D03*
X142865000Y-107940000D03*
X145405000Y-107940000D03*
X147945000Y-107940000D03*
X150485000Y-107940000D03*
X153025000Y-107940000D03*
X155565000Y-107940000D03*
X158105000Y-107940000D03*
X160645000Y-107940000D03*
X163185000Y-107940000D03*
X165725000Y-107940000D03*
D19*
X145505000Y-122555000D03*
X150385000Y-122555000D03*
D10*
X154930000Y-80635000D03*
D18*
X152390000Y-80635000D03*
X149850000Y-80635000D03*
X147310000Y-80635000D03*
X144770000Y-80635000D03*
X142230000Y-80635000D03*
X139690000Y-80635000D03*
X137150000Y-80635000D03*
X134610000Y-80635000D03*
X132070000Y-80635000D03*
X129530000Y-80635000D03*
X126990000Y-80635000D03*
X124450000Y-80635000D03*
X121910000Y-80635000D03*
X121910000Y-73015000D03*
X124450000Y-73015000D03*
X126990000Y-73015000D03*
X129530000Y-73015000D03*
X132070000Y-73015000D03*
X134610000Y-73015000D03*
X137150000Y-73015000D03*
X139690000Y-73015000D03*
X142230000Y-73015000D03*
X144770000Y-73015000D03*
X147310000Y-73015000D03*
X149850000Y-73015000D03*
X152390000Y-73015000D03*
X154930000Y-73015000D03*
D20*
X164465000Y-122555000D03*
D21*
X162565000Y-122555000D03*
D16*
X181852500Y-83240000D03*
D17*
X181852500Y-87050000D03*
X181852500Y-90860000D03*
X181852500Y-94670000D03*
X181852500Y-98480000D03*
X181852500Y-102290000D03*
X181852500Y-106100000D03*
X181852500Y-109910000D03*
D12*
X126360000Y-114920000D03*
D13*
X128900000Y-114920000D03*
X126360000Y-112380000D03*
X128900000Y-112380000D03*
X126360000Y-109840000D03*
X128900000Y-109840000D03*
D16*
X181725500Y-72064000D03*
D17*
X181725500Y-75874000D03*
D20*
X138430000Y-131445000D03*
D21*
X136530000Y-131445000D03*
D20*
X133985000Y-131445000D03*
D21*
X132085000Y-131445000D03*
D20*
X121920000Y-70755000D03*
D21*
X121920000Y-68855000D03*
M02*
